<svg width="720" height="520" viewBox="0 0 720 520" fill="none" xmlns="http://www.w3.org/2000/svg">
  <rect width="720" height="520" rx="28" fill="#0A0A0A"/>
  <rect x="12" y="12" width="696" height="496" rx="20" fill="#101010" stroke="#2A2A2A"/>
  <circle cx="360" cy="250" r="120" fill="#171717" stroke="#3A3A3A" stroke-width="2"/>
  <circle cx="360" cy="250" r="75" fill="#0D0D0D" stroke="#4A4A4A" stroke-width="2"/>
  <circle cx="360" cy="250" r="16" fill="#F3F4F6"/>
  <path d="M360 130V175M360 325V370M240 250H195M525 250H480M276 166L308 198M444 302L476 334M444 198L476 166M276 334L308 302" stroke="#D1D5DB" stroke-width="2.5" stroke-linecap="round"/>
  <rect x="86" y="86" width="132" height="68" rx="12" fill="#141414" stroke="#2F2F2F"/>
  <rect x="502" y="86" width="132" height="68" rx="12" fill="#141414" stroke="#2F2F2F"/>
  <rect x="86" y="356" width="132" height="68" rx="12" fill="#141414" stroke="#2F2F2F"/>
  <rect x="502" y="356" width="132" height="68" rx="12" fill="#141414" stroke="#2F2F2F"/>
  <text x="152" y="128" fill="#E5E7EB" font-size="18" text-anchor="middle" font-family="Inter, Arial, sans-serif">NLP</text>
  <text x="568" y="128" fill="#E5E7EB" font-size="18" text-anchor="middle" font-family="Inter, Arial, sans-serif">RAG</text>
  <text x="152" y="398" fill="#E5E7EB" font-size="18" text-anchor="middle" font-family="Inter, Arial, sans-serif">ML</text>
  <text x="568" y="398" fill="#E5E7EB" font-size="18" text-anchor="middle" font-family="Inter, Arial, sans-serif">LLM</text>
  <path d="M218 120H250L294 185M502 120H470L426 185M218 390H250L294 315M502 390H470L426 315" stroke="#6B7280" stroke-width="2"/>
</svg>
